<?xml version="1.0" ?><svg id="Layer_1" style="enable-background:new 0 0 48 48;" version="1.1" viewBox="0 0 48 48" xml:space="preserve" xmlns="http://www.w3.org/2000/svg" xmlns:xlink="http://www.w3.org/1999/xlink"><style type="text/css">
	.st0{fill:#FF4676;}
	.st1{fill:#0F1C70;}
	.st2{fill:#FFE92E;}
	.st3{fill:#17D5D1;}
	.st4{fill:#FFFFFF;}
	.st5{fill:#EA2461;}
	.st6{fill:#F2F2F2;}
</style><g><g><g><circle class="st3" cx="24" cy="24" r="24"/></g></g><g><g><g><rect class="st1" height="4.4" width="7.6" x="20.2" y="37.5"/><path class="st4" d="M31.1,30.6c-1.3,1.3-2.3,2.9-2.8,4.7c-0.1,0.5-0.6,0.9-1.2,0.9h-6.2c-0.6,0-1.1-0.4-1.2-0.9      c-0.5-1.8-1.5-3.4-2.8-4.7c-1.9-1.9-3.1-4.5-3.1-7.4c0-6,5.2-10.9,11.4-10.2c4.7,0.5,8.4,4.3,9,8.9      C34.6,25.4,33.3,28.5,31.1,30.6z"/><path class="st1" d="M28,36.2H20c-0.4,0-0.8,0.3-0.8,0.8l0,0c0,0.4,0.3,0.8,0.8,0.8H28c0.4,0,0.8-0.3,0.8-0.8l0,0      C28.8,36.5,28.5,36.2,28,36.2z"/><path class="st1" d="M28,38.6H20c-0.4,0-0.8,0.3-0.8,0.8v0c0,0.4,0.3,0.8,0.8,0.8H28c0.4,0,0.8-0.3,0.8-0.8v0      C28.8,38.9,28.5,38.6,28,38.6z"/><path class="st1" d="M28,41H20c-0.4,0-0.8,0.3-0.8,0.8v0c0,0.4,0.3,0.8,0.8,0.8H28c0.4,0,0.8-0.3,0.8-0.8v0      C28.8,41.4,28.5,41,28,41z"/><circle class="st1" cx="24" cy="41.6" r="1.9"/></g></g><path class="st4" d="M24,10.3L24,10.3c-0.2,0-0.4-0.2-0.4-0.4V6.4C23.6,6.2,23.8,6,24,6l0,0c0.2,0,0.4,0.2,0.4,0.4v3.5    C24.4,10.1,24.2,10.3,24,10.3z"/><path class="st4" d="M17.5,12L17.5,12c-0.2,0.1-0.5,0-0.6-0.2l-1.7-3c-0.1-0.2,0-0.5,0.2-0.6l0,0c0.2-0.1,0.5,0,0.6,0.2l1.7,3    C17.8,11.7,17.7,11.9,17.5,12z"/><path class="st4" d="M12.8,16.8L12.8,16.8c-0.1,0.2-0.4,0.3-0.6,0.2l-3-1.7C9,15.1,9,14.8,9.1,14.6v0c0.1-0.2,0.4-0.3,0.6-0.2    l3,1.7C12.8,16.3,12.9,16.6,12.8,16.8z"/><path class="st4" d="M11.1,23.2L11.1,23.2c0,0.2-0.2,0.4-0.4,0.4H7.2c-0.2,0-0.4-0.2-0.4-0.4l0,0c0-0.2,0.2-0.4,0.4-0.4h3.5    C10.9,22.8,11.1,23,11.1,23.2z"/><path class="st4" d="M12.8,29.7L12.8,29.7c0.1,0.2,0,0.5-0.2,0.6l-3,1.7c-0.2,0.1-0.5,0-0.6-0.2l0,0c-0.1-0.2,0-0.5,0.2-0.6l3-1.7    C12.4,29.4,12.7,29.5,12.8,29.7z"/><path class="st4" d="M17.5,34.4L17.5,34.4c0.2,0.1,0.3,0.4,0.2,0.6L16,38c-0.1,0.2-0.4,0.3-0.6,0.2h0c-0.2-0.1-0.3-0.4-0.2-0.6    l1.7-3C17.1,34.4,17.3,34.3,17.5,34.4z"/><path class="st4" d="M30.5,34.4L30.5,34.4c0.2-0.1,0.5,0,0.6,0.2l1.7,3c0.1,0.2,0,0.5-0.2,0.6v0c-0.2,0.1-0.5,0-0.6-0.2l-1.7-3    C30.2,34.8,30.3,34.5,30.5,34.4z"/><path class="st4" d="M35.2,29.7L35.2,29.7c0.1-0.2,0.4-0.3,0.6-0.2l3,1.7c0.2,0.1,0.3,0.4,0.2,0.6l0,0c-0.1,0.2-0.4,0.3-0.6,0.2    l-3-1.7C35.2,30.2,35.1,29.9,35.2,29.7z"/><path class="st4" d="M36.9,23.2L36.9,23.2c0-0.2,0.2-0.4,0.4-0.4h3.5c0.2,0,0.4,0.2,0.4,0.4l0,0c0,0.2-0.2,0.4-0.4,0.4h-3.5    C37.1,23.6,36.9,23.5,36.9,23.2z"/><path class="st4" d="M35.2,16.8L35.2,16.8c-0.1-0.2,0-0.5,0.2-0.6l3-1.7c0.2-0.1,0.5,0,0.6,0.2v0c0.1,0.2,0,0.5-0.2,0.6l-3,1.7    C35.6,17,35.3,17,35.2,16.8z"/><path class="st4" d="M30.5,12L30.5,12c-0.2-0.1-0.3-0.4-0.2-0.6l1.7-3c0.1-0.2,0.4-0.3,0.6-0.2v0c0.2,0.1,0.3,0.4,0.2,0.6l-1.7,3    C30.9,12.1,30.7,12.1,30.5,12z"/></g></g></svg>